<?xml version="1.0" encoding="UTF-8"?><svg id="_レイヤー_2" xmlns="http://www.w3.org/2000/svg" viewBox="0 0 28 21.3"><defs><style>.cls-1{fill:#1e1e40;}</style></defs><g id="_レイヤー_1-2"><path class="cls-1" d="M23.25,7.68c.21-.63.15-1.22-.14-1.78-.4-.78-1.14-1.3-2.06-1.3h-5.93c-1.14,0-2.18.67-2.65,1.7l-5.37,11.83c-.1.21-.27.31-.44.31-.2,0-.34-.11-.44-.3l-2.08-3.88c-.12-.22-.12-.42-.02-.64l.5-1.12,2.11-4.61c.7-1.54-.42-3.29-2.11-3.29H.34c-.3,0-.41-.43-.3-.64L2.06.23C2.16.05,2.34,0,2.56,0l19,.03c1.51,0,2.97.69,4.06,1.64.9.77,1.49,1.67,1.91,2.77.83,2.18.55,4.6-.82,6.56-1.22,1.76-3.28,3-5.55,3.01h-3.48c-1.15.01-2.18.69-2.65,1.73l-2.3,5.17c-.08.19-.19.41-.42.41h-3.39c-.24,0-.41-.33-.31-.56l4.88-10.95c.1-.22.26-.43.51-.44h7.01c1.06-.01,1.91-.68,2.25-1.68Z"/></g></svg>