<?xml version="1.0" encoding="UTF-8"?><svg id="_レイヤー_2" xmlns="http://www.w3.org/2000/svg" viewBox="0 0 800 196.83"><defs><style>.cls-1{fill:#1e1e40;}</style></defs><g id="_レイヤー_1-2"><path class="cls-1" d="M214.81,71c1.95-5.82,1.37-11.25-1.26-16.46-3.67-7.25-10.57-12.01-19.01-12.01h-54.78c-10.54-.02-20.11,6.15-24.47,15.75l-49.59,109.26c-.89,1.96-2.5,2.86-4.1,2.88-1.87.02-3.15-1.05-4.1-2.81l-19.21-35.83c-1.1-2.04-1.14-3.87-.21-5.95l4.61-10.33,19.48-42.62c6.5-14.22-3.88-30.4-19.52-30.42l-39.5-.05c-2.73,0-3.81-3.93-2.8-5.91L19.05,2.15C19.97.44,21.64,0,23.66,0l175.52.23c13.91.02,27.44,6.38,37.55,15.12,8.27,7.15,13.8,15.42,17.66,25.56,7.68,20.16,5.06,42.46-7.55,60.59-11.31,16.26-30.3,27.73-51.29,27.78l-32.17.07c-10.59.02-20.17,6.26-24.48,15.94l-21.26,47.75c-.79,1.76-1.75,3.79-3.91,3.79h-31.36c-2.21,0-3.82-3.04-2.87-5.16l45.1-101.13c.92-2.06,2.38-4.02,4.72-4.02l64.72-.11c9.8-.02,17.69-6.17,20.79-15.4Z"/><polygon class="cls-1" points="387.15 53.33 387.11 36.73 297.94 36.69 297.96 53.33 333.5 53.41 333.48 147.1 351.38 147 351.34 53.38 387.15 53.33"/><rect class="cls-1" x="472.77" y="32.99" width="17.12" height="114.15"/><path class="cls-1" d="M697.57,71.97c-6.39,4.12-9.96,10.9-9.98,18.65l-.12,56.46h16.98s.07-54.39.07-54.39c.78-5.46,4.26-9.15,9.38-9.16l11.43-.04,2.49-14.9-17.01-.08c-4.74-.02-9.15,1.25-13.26,3.46Z"/><path class="cls-1" d="M629.89,68.65c-7.42,1.55-13.53,5.35-17.82,12.27l-.38-11.38h-16.25s-.01,108.5-.01,108.5l16.75-.02.07-41.08c6.99,8.18,16.59,12.06,27.09,11.74,14.14-.42,26.27-8.55,31.68-21.63,4.64-11.31,5.07-24,.84-35.4-6.48-17.43-23.92-26.79-41.97-23.02ZM653.45,122.77c-2.91,5.35-7.62,8.81-13.9,9.95-10.13,1.84-20.12-2.81-24.46-11.99-3.55-7.51-3.61-16.31-.45-23.86,3.88-9.24,12.91-14.49,22.72-13.36,6.77.77,12.51,4.34,15.88,10.35,5,8.93,5.09,19.92.2,28.91Z"/><path class="cls-1" d="M428.04,68.25c-18.52-2.86-35.98,6.84-42.7,24.52-3.6,9.48-3.78,19.87-.76,29.65,4.37,14.14,16.18,23.99,30.81,25.88,18.4,2.38,36.26-5.13,42.22-23.11l-16.62-2.54c-1.43,2.94-3.01,5.4-5.78,7.4-6.67,4.17-14.65,4.83-21.73,1.87-7.5-3.15-12.54-9.93-13.18-18.24l59.02.02c1.93-22.35-8.66-41.96-31.27-45.45ZM400.71,100.58c1.22-6.79,5.19-12.77,11.46-15.79,8-3.85,17.88-2.44,24.18,3.72,3.32,3.25,4.7,7.57,5.48,12.05l-41.12.02Z"/><path class="cls-1" d="M542.87,67.77c-22.43,0-40.61,18.18-40.61,40.61s18.18,40.61,40.61,40.61,40.61-18.18,40.61-40.61-18.18-40.61-40.61-40.61ZM563.7,118.57c-3.11,9.13-11.04,14.43-20.35,14.57-8.35.12-15.82-3.86-19.69-11.44-4.13-8.08-4.33-18.12-.33-26.24,3.96-8.04,11.8-12.38,20.52-11.98,7.94.36,14.67,4.39,18.37,11.57,3.67,7.12,4.15,15.65,1.47,23.53Z"/><path class="cls-1" d="M799.94,98.67c-.02-12.05-4.84-22.99-16.15-27.71-11.07-4.63-23.56-4.31-34.52.56-8.3,4.09-13.36,11.77-15.04,20.87l16.07,2.4c1.05-5.78,4.43-10.27,9.84-11.85,10.03-2.47,21.37.62,22.77,10.97l.15,6.31-19.14.42c-6.92.15-13.46,1.42-19.68,4.19-7.68,3.41-12.04,10.27-12.53,18.96-.57,9.95,4.23,18.53,13.25,22.34,12.88,5.44,31.2,3.23,38.82-9.67l.66,10.66,15.55-.02-.06-48.41ZM776.83,129.57c-5.44,4.82-12.85,6.4-19.67,4.84-4.1-.94-6.99-4.13-7.8-7.42-1.06-4.3-.03-8.52,3.4-11.04,2.92-2.15,6.56-2.97,10.18-3.08l20.11-.57c.43,6.62-1.13,12.76-6.22,17.27Z"/></g></svg>